# xmcd CD database file
#
# Track frame offsets:
#	150
#	16666
#	28052
#	42440
#	53204
#	86478
#	117200
#	128162
#	153270
#	181880
#	198535
#	214633
#	240196
#	268323
#	286932
#	307472
#	329252
#	341544
#
# Disc length: 4743 seconds
#
# Revision: 1
# Processed by: cddbd v1.5.1PL0 Copyright (c) Steve Scherf et al.
# Submitted via: CDex 1.51
#
DISCID=fe128512
DTITLE=Various Artist - Jazz Bistro 3
DYEAR=2003
DGENRE=Jazz
TTITLE0=Laura Fygi/Don't It Make My Brown Eyes Blue
TTITLE1=Dinah Washington/It's Magic
TTITLE2=Louis Armstrong/Only You
TTITLE3=Peggy Lee/The Boy From Ipanema
TTITLE4=Gabin/Do Uap Do Uap Do Uap (Feat. Steffano Di Battista)
TTITLE5=Sarah Vaughan/Summertime (Ufo)
TTITLE6=Nat King Cole/Let's Face The Music and Dance
TTITLE7=Shirley Bassy/Where Do I Begin (Away Team Mix)
TTITLE8=St Germain/Sure Thing
TTITLE9=Paris Combo/Senor
TTITLE10=De-Phazz/Heart Fixer
TTITLE11=US3/Tukka Yoot's Riddim
TTITLE12=Soulive Feat. Dave Matthews/Joyful Girl
TTITLE13=Cassandra Wilson/Time After Time
TTITLE14=Charlie Hunter, Nora Jones/Day Is Done
TTITLE15=Dave Brubeck/Take Five
TTITLE16=Nat King Cole/Let There Be Love
TTITLE17=Buddy Greco/The Lady Is A Tramp
EXTD=YEAR: 2003
EXTT0=
EXTT1=
EXTT2=
EXTT3=
EXTT4=
EXTT5=
EXTT6=
EXTT7=
EXTT8=
EXTT9=
EXTT10=
EXTT11=
EXTT12=
EXTT13=
EXTT14=
EXTT15=
EXTT16=
EXTT17=
PLAYORDER=
